<svg width="4" height="6" viewBox="0 0 4 6" fill="none" xmlns="http://www.w3.org/2000/svg">
<path d="M0.296198 0.0959034L0.0982936 0.292441C0.0364882 0.354296 0.0024391 0.436589 0.0024391 0.524541C0.0024391 0.612444 0.0364882 0.694835 0.0982936 0.756689L2.34036 2.99866L0.0958057 5.24321C0.0340003 5.30497 0 5.38736 0 5.47526C0 5.56317 0.0340003 5.64561 0.0958057 5.70741L0.29249 5.904C0.420394 6.032 0.628737 6.032 0.75664 5.904L3.43866 3.23159C3.50042 3.16983 3.54393 3.08754 3.54393 2.99885V2.99783C3.54393 2.90988 3.50037 2.82758 3.43866 2.76583L0.763909 0.0959034C0.702152 0.034049 0.617371 9.72748e-05 0.529468 0C0.441516 0 0.357905 0.034049 0.296198 0.0959034Z" fill="#35414B"/>
</svg>
